<svg width="737" height="665" viewBox="0 0 737 665" fill="none" xmlns="http://www.w3.org/2000/svg">
<path d="M499.606 664.888C558.427 664.888 606.111 617.204 606.111 558.383C606.111 499.562 558.427 451.878 499.606 451.878C460.545 451.879 426.395 472.907 407.859 504.26L405.405 507.185C385.812 530.537 349.863 530.472 330.355 507.048L327.193 503.253C308.526 472.458 274.692 451.879 236.051 451.878C177.23 451.878 129.546 499.562 129.546 558.383C129.546 617.204 177.23 664.888 236.051 664.888C274.174 664.888 307.619 644.857 326.435 614.746L330.694 609.744C350.176 586.858 385.497 586.794 405.062 609.608L408.589 613.72C427.282 644.401 461.051 664.888 499.606 664.888Z" fill="white"/>
<path d="M331.503 160.669C360.913 109.728 343.46 44.5909 292.519 15.1805C241.579 -14.2299 176.441 3.2236 147.031 54.164C127.499 87.9948 128.637 128.088 146.526 159.818L147.83 163.398C158.257 192.042 140.225 223.142 110.185 228.324L105.306 229.167C69.3056 229.939 34.5711 248.95 15.2522 282.412C-14.1582 333.352 3.29541 398.489 54.2357 427.9C105.176 457.31 170.314 439.857 199.724 388.916C218.782 355.907 218.161 316.936 201.502 285.588L199.292 279.378C189.213 251.064 206.818 220.443 236.358 214.906L241.682 213.909C277.599 213.06 312.226 194.058 331.503 160.669Z" fill="white"/>
<path d="M537.284 388.915C566.695 439.855 631.832 457.309 682.773 427.898C733.713 398.488 751.166 333.35 721.756 282.41C702.224 248.58 666.935 229.52 630.512 229.146L626.759 228.484C596.739 223.193 578.821 192.027 589.353 163.421L591.065 158.769C608.394 127.207 609.296 87.6227 589.978 54.1632C560.567 3.22282 495.43 -14.2307 444.489 15.1797C393.549 44.5902 376.095 109.728 405.506 160.668C424.565 193.679 458.628 212.627 494.107 213.872L500.586 215.062C530.146 220.491 547.862 251.047 537.887 279.398L536.092 284.498C518.864 316.029 518.005 355.522 537.284 388.915Z" fill="white"/>
</svg>
