<svg width="3534" height="818" viewBox="0 0 3534 818" fill="none" xmlns="http://www.w3.org/2000/svg">
<g clip-path="url(#clip0_1148_57695)">
<path d="M537.606 732.888C596.427 732.888 644.111 685.204 644.111 626.383C644.111 567.563 596.427 519.879 537.606 519.879C498.545 519.879 464.395 540.907 445.859 572.26L443.405 575.185C423.812 598.538 387.863 598.472 368.355 575.048L365.193 571.254C346.526 540.458 312.692 519.879 274.051 519.879C215.23 519.879 167.546 567.563 167.546 626.383C167.546 685.204 215.23 732.888 274.051 732.888C312.174 732.888 345.619 712.857 364.435 682.746L368.694 677.744C388.176 654.858 423.497 654.794 443.062 677.608L446.589 681.72C465.282 712.401 499.051 732.888 537.606 732.888Z" fill="#242424"/>
<path d="M369.503 228.669C398.913 177.728 381.46 112.591 330.519 83.1805C279.579 53.7701 214.441 71.2236 185.031 122.164C165.499 155.995 166.636 196.088 184.526 227.818L185.83 231.398C196.257 260.042 178.225 291.142 148.185 296.324L143.305 297.167C107.306 297.939 72.5711 316.95 53.2522 350.412C23.8417 401.352 41.2954 466.489 92.2357 495.9C143.176 525.31 208.314 507.857 237.724 456.916C256.782 423.907 256.161 384.936 239.502 353.588L237.292 347.378C227.213 319.064 244.818 288.443 274.358 282.906L279.677 281.909C315.596 281.062 350.225 262.06 369.503 228.669Z" fill="#242424"/>
<path d="M575.284 456.915C604.695 507.855 669.832 525.309 720.773 495.898C771.713 466.488 789.166 401.35 759.756 350.41C740.224 316.58 704.935 297.52 668.512 297.146L664.759 296.484C634.739 291.193 616.821 260.027 627.353 231.421L629.065 226.769C646.394 195.207 647.295 155.623 627.978 122.163C598.567 71.2229 533.43 53.7695 482.489 83.1798C431.549 112.59 414.095 177.728 443.506 228.668C462.565 261.679 496.628 280.627 532.107 281.872L538.586 283.062C568.146 288.491 585.862 319.047 575.887 347.398L574.092 352.498C556.864 384.029 556.005 423.522 575.284 456.915Z" fill="#242424"/>
</g>
<path d="M1034.62 493.987C1037.22 497.772 1038.52 504.988 1038.52 515.633V664.317H953V153.328H1164.14C1169.11 153.328 1175.49 153.565 1183.3 154.038C1191.34 154.275 1198.56 154.984 1204.95 156.167C1234.52 160.662 1258.65 169.297 1277.34 182.072C1296.02 194.846 1310.34 211.997 1320.27 233.525C1330.21 255.053 1335.18 279.893 1335.18 308.044C1335.18 342.583 1328.32 372.391 1314.6 397.467C1301.11 422.307 1274.02 436.146 1233.33 438.985L1234.75 485.116H1067.62C1052.48 485.116 1043.61 484.406 1041 482.987C1038.4 481.331 1032.84 477.546 1024.33 471.632L1019 478.019C1027.05 484.879 1032.25 490.202 1034.62 493.987ZM1127.94 485.116V447.502C1159.41 447.502 1188.39 447.502 1214.88 447.502C1241.38 447.502 1262.43 449.039 1278.05 452.115C1293.9 455.19 1307.97 463.825 1320.27 478.019C1329.74 488.901 1334.47 506.289 1334.47 530.182C1334.47 553.839 1334.47 571.463 1334.47 583.055V664.317H1249.66V582.7C1249.66 564.958 1249.3 550.054 1248.59 537.989C1248.12 525.687 1245.52 515.752 1240.79 508.181C1231.56 492.804 1217.13 485.116 1197.49 485.116C1177.86 485.116 1154.67 485.116 1127.94 485.116ZM1033.91 401.016C1030.83 406.457 1025.86 412.135 1019 418.049L1024.68 423.726C1030.83 417.576 1036.98 413.081 1043.13 410.242C1049.52 407.403 1057.68 405.984 1067.62 405.984H1160.59C1165.32 405.984 1170.64 405.747 1176.56 405.274C1182.47 404.801 1187.91 403.855 1192.88 402.435C1207.07 398.887 1218.19 392.618 1226.24 383.628C1234.52 374.638 1240.31 364.466 1243.62 353.111C1247.17 341.755 1248.95 330.637 1248.95 319.754C1248.95 308.872 1247.17 297.754 1243.62 286.398C1240.31 274.806 1234.52 264.516 1226.24 255.526C1218.19 246.536 1207.07 240.267 1192.88 236.719C1187.91 235.299 1182.47 234.471 1176.56 234.235C1170.64 233.762 1165.32 233.525 1160.59 233.525H1068.33C1058.86 233.525 1051.41 231.987 1045.97 228.912C1040.53 225.837 1034.38 220.396 1027.52 212.589L1021.13 217.557C1032.72 231.041 1038.52 246.182 1038.52 262.978V379.37C1038.52 388.359 1036.98 395.575 1033.91 401.016Z" fill="#242424"/>
<path d="M1622.36 651.897C1601.31 667.51 1572.8 675.317 1536.84 675.317C1508.46 675.317 1485.04 670.586 1466.58 661.123C1448.13 651.66 1433.46 639.595 1422.58 624.928C1411.7 610.261 1403.66 594.647 1398.45 578.087C1393.25 561.528 1389.82 545.796 1388.16 530.892C1386.74 515.988 1386.03 504.041 1386.03 495.052V281.075H1472.62V465.599C1472.62 477.427 1473.44 490.675 1475.1 505.343C1476.99 520.01 1480.9 534.204 1486.81 547.925C1492.72 561.646 1501.6 572.883 1513.42 581.636C1525.49 590.389 1541.69 594.765 1562.04 594.765C1572.92 594.765 1583.68 592.991 1594.33 589.443C1604.98 585.894 1614.56 579.862 1623.07 571.345C1631.83 562.592 1638.81 550.645 1644.01 535.505C1649.21 520.365 1651.82 501.203 1651.82 478.019L1692.27 499.665C1692.27 532.311 1685.88 561.882 1673.11 588.378C1660.57 614.874 1643.65 636.047 1622.36 651.897ZM1651.82 591.572V281.075H1737.69V664.317H1662.11V649.413C1662.11 640.896 1664.24 631.197 1668.49 620.315C1672.75 609.433 1677.6 599.852 1683.04 591.572H1651.82Z" fill="#242424"/>
<path d="M2160.66 450.34V664.317H2074.07V479.793C2074.07 467.728 2073.25 454.362 2071.59 439.695C2069.93 425.027 2066.03 410.952 2059.88 397.467C2053.97 383.746 2044.98 372.509 2032.91 363.756C2021.08 355.003 2005 350.627 1984.65 350.627C1973.77 350.627 1963.01 352.401 1952.36 355.949C1941.71 359.498 1932.13 365.649 1923.62 374.402C1915.1 382.918 1908.12 394.747 1902.68 409.887C1897.48 424.791 1894.87 443.953 1894.87 467.373L1858.32 445.727C1858.32 413.081 1862.7 383.51 1871.45 357.014C1880.21 330.518 1896.41 309.464 1920.07 293.85C1943.96 278 1973.89 270.075 2009.85 270.075C2038.23 270.075 2061.65 274.806 2080.11 284.269C2098.56 293.732 2113.23 305.797 2124.11 320.464C2134.99 335.131 2143.03 350.745 2148.24 367.305C2153.44 383.865 2156.76 399.596 2158.17 414.5C2159.83 429.167 2160.66 441.114 2160.66 450.34ZM1894.52 353.465V664.317H1808.29V281.075H1883.87V295.979C1883.87 304.496 1881.74 314.313 1877.49 325.432C1873.23 336.314 1868.5 345.659 1863.29 353.465H1894.52Z" fill="#242424"/>
<path d="M2417.56 655.8C2395.08 668.575 2366.58 674.962 2332.04 674.962C2304.36 674.962 2280.94 669.758 2261.78 659.349C2242.61 648.703 2228.06 634.627 2218.13 617.121C2208.43 599.615 2203.58 580.335 2203.58 559.28C2203.58 540.828 2206.3 524.031 2211.74 508.891C2217.18 493.514 2226.17 479.675 2238.71 467.373C2251.25 454.835 2267.57 445.136 2287.68 438.275C2313.47 429.286 2337.36 424.318 2359.36 423.372C2381.6 422.189 2402.06 421.597 2420.75 421.597C2439.44 421.597 2462.62 421.952 2490.3 422.662L2458.01 428.694C2458.25 400.543 2452.33 380.198 2440.27 367.66C2428.2 355.121 2407.86 348.852 2379.23 348.852C2361.96 348.852 2345.28 352.874 2329.2 360.917C2313.11 368.961 2304.59 382.09 2303.65 400.306L2217.42 398.887C2218.84 353.229 2234.81 320.464 2265.32 300.592C2296.08 280.484 2334.05 270.43 2379.23 270.43C2413.53 270.43 2443.58 275.989 2469.36 287.108C2495.15 298.227 2514.31 316.443 2526.85 341.755C2533.71 355.24 2537.85 369.079 2539.27 383.273C2540.69 397.231 2541.4 412.489 2541.4 429.049V664.317H2466.53V650.832C2466.53 639.004 2468.77 629.186 2473.27 621.379C2478 613.336 2484.39 604.11 2492.43 593.701L2484.98 587.668C2462.74 620.078 2440.27 642.789 2417.56 655.8ZM2315 600.443C2324.23 604.701 2335.58 606.83 2349.07 606.83C2368.47 606.83 2385.03 603.4 2398.75 596.54C2412.47 589.443 2423.35 581.044 2431.39 571.345C2439.67 561.409 2445.23 552.065 2448.07 543.312C2452.57 532.43 2455.05 520.601 2455.52 507.827C2456.23 495.052 2456.59 484.288 2456.59 475.535L2484.62 492.568C2457.42 491.385 2434.23 490.912 2415.07 491.148C2395.91 491.385 2379.47 492.095 2365.75 493.278C2352.26 494.46 2340.2 497.299 2329.55 501.794C2320.33 506.289 2312.64 511.257 2306.49 516.698C2300.57 521.902 2295.84 528.053 2292.29 535.15C2288.98 542.247 2287.32 549.936 2287.32 558.216C2287.32 567.442 2289.69 575.722 2294.42 583.055C2299.15 590.389 2306.01 596.185 2315 600.443Z" fill="#242424"/>
<path d="M2887.5 648.348C2863.14 666.091 2834.39 674.962 2801.27 674.962C2766.73 674.962 2737.64 666.091 2713.98 648.348C2690.32 630.606 2672.58 606.476 2660.75 575.958C2648.92 545.204 2643.01 510.784 2643.01 472.696C2643.01 434.135 2648.92 399.596 2660.75 369.079C2672.58 338.562 2689.97 314.55 2712.92 297.044C2736.1 279.301 2764.61 270.43 2798.43 270.43C2832.26 270.43 2861.6 279.183 2886.44 296.689C2911.28 314.195 2930.44 338.207 2943.92 368.724C2957.65 399.242 2964.51 433.899 2964.51 472.696C2964.51 511.02 2957.76 545.441 2944.28 575.958C2931.03 606.476 2912.11 630.606 2887.5 648.348ZM2673.53 619.96C2678.02 630.606 2680.27 641.606 2680.27 652.961V664.317H2604.68V153.328H2690.91V284.979C2690.91 293.022 2688.79 301.894 2684.53 311.593C2680.27 321.056 2674.24 330.163 2666.43 338.917L2675.66 343.884L2690.91 325.077V397.822H2680.27V604.701L2667.85 585.539L2657.56 591.927C2663.71 599.733 2669.03 609.078 2673.53 619.96ZM2720.72 582.7C2734.92 593.109 2753.49 598.314 2776.43 598.314C2798.67 598.314 2817.01 592.755 2831.44 581.636C2845.87 570.517 2856.51 555.495 2863.37 536.57C2870.47 517.408 2874.02 496.116 2874.02 472.696C2874.02 449.512 2870.47 428.458 2863.37 409.532C2856.28 390.37 2845.28 375.23 2830.37 364.111C2815.47 352.756 2796.54 347.078 2773.59 347.078C2751.83 347.078 2734.09 352.401 2720.37 363.047C2706.65 373.456 2696.47 388.123 2689.85 407.048C2683.46 425.737 2680.27 447.62 2680.27 472.696C2680.27 497.299 2683.46 519.182 2689.85 538.344C2696.47 557.269 2706.76 572.055 2720.72 582.7Z" fill="#242424"/>
<path d="M3106.95 142.683V664.317H3021.43V142.683H3106.95Z" fill="#242424"/>
<path d="M3465.55 642.671C3431.48 664.198 3396 674.962 3359.09 674.962C3320.29 674.962 3286.23 666.564 3256.89 649.768C3227.56 632.971 3204.61 609.669 3188.05 579.862C3171.73 550.054 3163.57 515.752 3163.57 476.954C3163.57 435.082 3171.61 398.768 3187.7 368.014C3204.02 337.024 3226.38 313.012 3254.76 295.979C3283.39 278.946 3316.51 270.43 3354.12 270.43C3393.87 270.43 3427.58 279.774 3455.26 298.463C3483.17 316.916 3503.87 343.056 3517.36 376.886C3530.84 410.715 3535.93 450.577 3532.61 496.471H3447.8V465.244C3447.57 423.608 3440.23 393.209 3425.8 374.047C3411.37 354.885 3388.66 345.304 3357.67 345.304C3322.9 345.304 3296.87 356.186 3279.6 377.95C3262.57 399.478 3254.05 431.06 3254.05 472.696C3254.05 511.493 3262.57 541.538 3279.6 562.829C3296.87 584.12 3321.71 594.765 3354.12 594.765C3375.18 594.765 3393.28 590.152 3408.42 580.926C3423.79 571.463 3435.62 557.861 3443.9 540.118L3532.26 542.602C3521.85 587.55 3499.61 620.906 3465.55 642.671ZM3490.74 431.888V496.471H3227.09V431.888H3254.05L3251.22 462.05H3263.28C3264.23 452.351 3268.25 444.899 3275.35 439.695C3282.68 434.49 3292.62 431.888 3305.15 431.888H3490.74Z" fill="#242424"/>
<defs>
<clipPath id="clip0_1148_57695">
<rect width="818" height="818" fill="white"/>
</clipPath>
</defs>
</svg>
