<svg width="108" height="21" viewBox="0 0 108 21" fill="none" xmlns="http://www.w3.org/2000/svg">
<path d="M32.1748 9.21875C32.6507 9.21882 33.0595 9.72384 32.9179 10.1367L31.4902 14.2979C31.3968 14.5688 31.1441 14.743 30.8457 14.7432H27.6445C27.4581 14.7434 27.3071 14.846 27.2539 15.0088L26.5058 17.2998C26.4153 17.576 26.1598 17.7548 25.8574 17.7549H18.7822C18.7497 17.7549 18.7172 17.7526 18.6855 17.748C18.6277 17.7396 18.5692 17.7295 18.5117 17.7295H12.2841C11.812 17.7293 11.4573 17.2293 11.6347 16.8145L12.8476 13.9863C12.935 13.7829 13.1355 13.6553 13.3671 13.6553H18.7255C18.9724 13.655 19.1806 13.5103 19.2578 13.2861L20.5439 9.54102C20.6121 9.34311 20.7971 9.21906 21.0253 9.21875H32.1748ZM10.6445 13.6553C11.1166 13.6556 11.4706 14.1555 11.2929 14.5703L10.081 17.3984C9.99369 17.602 9.79324 17.7295 9.56148 17.7295H5.44527C4.97295 17.7292 4.61878 17.2283 4.79683 16.8135L6.00972 13.9863C6.09704 13.7831 6.29684 13.6554 6.52827 13.6553H10.6445ZM29.7724 3.24609C30.251 3.24613 30.607 3.75857 30.4169 4.17383L29.121 7.00195C29.0309 7.19858 28.834 7.32026 28.6074 7.32031H19.749C19.4968 7.32033 19.2853 7.471 19.2119 7.70215L18.1015 11.1943C18.0281 11.4254 17.8164 11.576 17.5644 11.5762H7.29585C6.84804 11.5762 6.49673 11.1225 6.62691 10.7119L8.87788 3.62891C8.95128 3.39788 9.16208 3.24729 9.41402 3.24707H19.7119L19.7128 3.24609H29.7724ZM11.7773 5.83984C11.6589 5.83984 11.5593 5.91138 11.5263 6.02051L10.832 8.33105C10.7749 8.52092 10.9367 8.72832 11.1425 8.72852H14.4843C14.6044 8.72843 14.7048 8.65443 14.7363 8.54297L15.3876 6.2334C15.4411 6.04409 15.2791 5.83984 15.0751 5.83984H11.7773Z" fill="#2A2A2A"/>
<path d="M39.1211 12.4093C39.1776 12.4864 39.2059 12.6507 39.2059 12.9024V16H37.11V4.90427H41.7949C41.9027 4.90427 42.0466 4.9094 42.2264 4.91968C42.4113 4.92482 42.5757 4.94023 42.7195 4.96591C43.3822 5.06865 43.9164 5.25615 44.3222 5.5284C44.7332 5.79552 45.0465 6.16538 45.2623 6.63798C45.478 7.10543 45.5859 7.64995 45.5859 8.27151C45.5859 9.01123 45.4395 9.65591 45.1467 10.2056C44.859 10.7552 44.2554 11.0583 43.3359 11.1148L43.3745 12.2167H39.8993C39.5346 12.2167 39.324 12.2038 39.2675 12.1781C39.2161 12.1473 39.0851 12.06 38.8745 11.9162L38.759 12.0471C38.949 12.2115 39.0697 12.3322 39.1211 12.4093ZM41.086 12.2167V11.3074C41.6613 11.3074 42.2572 11.3074 42.8736 11.3074C43.49 11.3074 43.9729 11.346 44.3222 11.423C44.6715 11.4949 44.9798 11.6747 45.2469 11.9624C45.4626 12.1935 45.5705 12.566 45.5705 13.0797C45.5705 13.5882 45.5705 13.9735 45.5705 14.2355V16H43.49V14.2278C43.49 13.9041 43.4823 13.6139 43.4669 13.3571C43.4567 13.1002 43.4079 12.8922 43.3205 12.7329C43.1356 12.3887 42.8402 12.2167 42.4344 12.2167C42.0286 12.2167 41.5791 12.2167 41.086 12.2167ZM39.098 10.167C39.0312 10.2903 38.9182 10.4239 38.759 10.5677L38.8822 10.691C39.0261 10.5472 39.1725 10.4444 39.3214 10.3828C39.4704 10.316 39.663 10.2826 39.8993 10.2826H41.7024C41.8103 10.2826 41.9284 10.2775 42.0568 10.2672C42.1853 10.2569 42.3034 10.2364 42.4113 10.2056C42.6938 10.1285 42.9121 10.0001 43.0663 9.82029C43.2204 9.63536 43.3257 9.43246 43.3822 9.21157C43.4438 8.98554 43.4746 8.77236 43.4746 8.57202C43.4746 8.37168 43.4438 8.16107 43.3822 7.94018C43.3257 7.71416 43.2204 7.51125 43.0663 7.33146C42.9121 7.14653 42.6938 7.01554 42.4113 6.93849C42.3034 6.90766 42.1853 6.88712 42.0568 6.87684C41.9284 6.86657 41.8103 6.86143 41.7024 6.86143H39.8993C39.6836 6.86143 39.5115 6.82547 39.3831 6.75356C39.2547 6.68164 39.1108 6.55578 38.9516 6.37599L38.8052 6.47616C39.0723 6.79465 39.2059 7.15167 39.2059 7.54721V9.65848C39.2059 9.87423 39.1699 10.0437 39.098 10.167ZM54.3072 15.6918C53.6291 16.0514 52.8432 16.2312 51.9493 16.2312C51.0555 16.2312 50.2696 16.0514 49.5915 15.6918C48.9134 15.3271 48.3843 14.8159 48.0042 14.1584C47.6241 13.5009 47.434 12.7278 47.434 11.8391V4.91968L49.5607 4.90427V11.8237C49.5607 12.1884 49.6223 12.5197 49.7456 12.8177C49.8689 13.1156 50.0384 13.3725 50.2542 13.5882C50.475 13.804 50.7293 13.9709 51.017 14.0891C51.3098 14.2021 51.6206 14.2586 51.9493 14.2586C52.2884 14.2586 52.6017 14.1995 52.8894 14.0814C53.1822 13.9632 53.4365 13.7963 53.6522 13.5805C53.868 13.3648 54.0349 13.1079 54.1531 12.81C54.2764 12.512 54.338 12.1833 54.338 11.8237V4.90427H56.4647V11.8391C56.4647 12.7278 56.2746 13.5009 55.8945 14.1584C55.5144 14.8159 54.9853 15.3271 54.3072 15.6918ZM60.5961 8.72613C60.6937 9.33229 60.7425 9.93331 60.7425 10.5292V16H58.6158V4.90427H60.7425L64.5335 10.7141C64.8674 11.2535 65.1243 11.7261 65.3041 12.1319C65.489 12.5377 65.7202 13.1208 65.9976 13.881L66.1671 13.8271C65.9719 13.149 65.8229 12.5737 65.7202 12.1011C65.6174 11.6233 65.5661 11.2201 65.5661 10.8913V4.90427H67.6927V16H65.5661L61.9985 10.5292C61.6389 9.96413 61.3307 9.38879 61.0738 8.80318C60.817 8.21758 60.5832 7.59601 60.3726 6.93849L60.2031 6.99242C60.3726 7.54207 60.5036 8.11998 60.5961 8.72613ZM71.9309 13.6884L71.2297 16H69.0722L72.4626 4.90427H75.591L78.9813 16H76.8238L76.1072 13.6884H71.9309ZM72.4934 11.5386C72.3444 11.7595 72.1364 11.9829 71.8693 12.209L71.9849 12.3399C72.1698 12.1756 72.3188 12.0549 72.4318 11.9778C72.5499 11.8956 72.6758 11.834 72.8093 11.7929C72.9429 11.7518 73.1047 11.7312 73.2948 11.7312H74.7357C75.0336 11.7312 75.2725 11.7723 75.4523 11.8545C75.6372 11.9367 75.8324 12.0805 76.0379 12.286L76.1612 12.155C75.9249 11.9136 75.7348 11.6901 75.591 11.4847C75.4471 11.2792 75.3059 10.9915 75.1672 10.6217L74.2502 7.6782C74.1424 7.40594 74.0884 7.00527 74.0884 6.47616L74.0961 6.21418H73.9112C73.9163 6.48644 73.9061 6.75612 73.8804 7.02324C73.8598 7.28523 73.8213 7.50355 73.7648 7.6782L72.871 10.6217C72.7682 11.0069 72.6424 11.3126 72.4934 11.5386ZM85.2784 16H80.3624V4.90427H84.8007C85.5918 4.90427 86.2313 5.06351 86.7193 5.382C87.2073 5.69535 87.5644 6.09089 87.7904 6.56863C88.0164 7.04636 88.1294 7.52923 88.1294 8.01724C88.1294 8.6388 87.9882 9.15506 87.7056 9.56602C87.4282 9.97697 87.0455 10.2518 86.5575 10.3905V10.0052C87.251 10.1491 87.7698 10.4701 88.114 10.9684C88.4633 11.4667 88.638 12.024 88.638 12.6405C88.638 13.3031 88.5147 13.8862 88.2681 14.3896C88.0267 14.893 87.6568 15.2885 87.1585 15.5762C86.6603 15.8587 86.0336 16 85.2784 16ZM82.3735 13.8656C82.3016 14.0249 82.222 14.1353 82.1346 14.1969L82.2656 14.3202C82.3273 14.238 82.4403 14.1687 82.6047 14.1122C82.769 14.0557 82.9052 14.0274 83.0131 14.0274H85.0627C85.3452 14.0274 85.5969 13.9684 85.8178 13.8502C86.0387 13.7269 86.2108 13.5574 86.3341 13.3416C86.4625 13.1208 86.5267 12.8613 86.5267 12.5634C86.5267 12.3014 86.4728 12.0677 86.3649 11.8622C86.257 11.6567 86.0926 11.4949 85.8717 11.3768C85.656 11.2535 85.3863 11.1918 85.0627 11.1918H83.0131C82.9103 11.1918 82.7845 11.161 82.6355 11.0994C82.4917 11.0377 82.3863 10.9735 82.3196 10.9068L82.204 11.0454C82.2913 11.102 82.3607 11.1944 82.412 11.3228C82.4634 11.4461 82.4891 11.5745 82.4891 11.7081V13.4264C82.4891 13.56 82.4506 13.7064 82.3735 13.8656ZM82.3812 9.04976C82.3144 9.17304 82.2348 9.26294 82.1423 9.31944L82.2579 9.45814C82.3298 9.3965 82.4429 9.33999 82.597 9.28862C82.7562 9.23212 82.8949 9.20386 83.0131 9.20386L84.7699 9.23469C85.0062 9.23982 85.2168 9.2013 85.4017 9.1191C85.5866 9.03178 85.733 8.90335 85.8409 8.73384C85.9488 8.55918 86.0027 8.33573 86.0027 8.06347C86.0027 7.72443 85.8974 7.43933 85.6868 7.20817C85.4762 6.97701 85.1706 6.86143 84.7699 6.86143H83.0131C82.9103 6.86143 82.7845 6.82034 82.6355 6.73815C82.4865 6.65595 82.3812 6.56863 82.3196 6.47616L82.1886 6.59945C82.2708 6.69705 82.3401 6.80493 82.3966 6.92307C82.4583 7.04122 82.4891 7.15424 82.4891 7.26211V8.67219C82.4891 8.79548 82.4531 8.92133 82.3812 9.04976ZM97.202 14.0428V16H90.3288V4.90427H92.4247V13.1336C92.4247 13.4932 92.3785 13.7706 92.286 13.9658C92.1987 14.1558 92.0625 14.3331 91.8776 14.4975L91.9932 14.6284C92.173 14.4384 92.363 14.2945 92.5634 14.1969C92.7689 14.0942 93.0462 14.0428 93.3956 14.0428H97.202ZM105.755 14.0428V16H98.5122V4.90427H105.755V6.86143H101.109C100.975 6.86143 100.834 6.83061 100.685 6.76897C100.536 6.70732 100.408 6.63027 100.3 6.53781L100.2 6.68421C100.308 6.7664 100.403 6.87941 100.485 7.02324C100.567 7.16194 100.608 7.29293 100.608 7.41622V8.69531C100.608 8.85455 100.577 8.99068 100.516 9.10369C100.459 9.21157 100.374 9.31431 100.261 9.41191L100.369 9.55061C100.477 9.45814 100.598 9.38366 100.731 9.32715C100.865 9.26551 100.991 9.23469 101.109 9.23469H104.831V11.1918H101.186C101.001 11.1918 100.847 11.1739 100.724 11.1379C100.605 11.102 100.492 11.0377 100.385 10.9453L100.261 11.0917C100.385 11.1893 100.472 11.2946 100.523 11.4076C100.58 11.5206 100.608 11.6619 100.608 11.8314V13.6036C100.608 13.7321 100.575 13.8579 100.508 13.9812C100.446 14.0993 100.367 14.1969 100.269 14.274L100.377 14.405C100.618 14.1636 100.888 14.0428 101.186 14.0428H105.755Z" fill="#2A2A2A"/>
</svg>
